<svg viewBox="0 0 24 24" fill="none" stroke="currentColor" stroke-width="1.8" xmlns="http://www.w3.org/2000/svg"><circle cx="12" cy="12" r="3"></circle><path d="M19.4 15a1.65 1.65 0 00.33 1.82l.06.06a2 2 0 11-2.83 2.83l-.06-.06a1.65 1.65 0 00-1.82-.33 1.65 1.65 0 00-1 1.51V21a2 2 0 01-4 0v-.09A1.65 1.65 0 009 19.4a1.65 1.65 0 00-1.82.33l-.06.06a2 2 0 11-2.83-2.83l.06-.06A1.65 1.65 0 004.6 15a1.65 1.65 0 00-1.51-1H3a2 2 0 010-4h.09A1.65 1.65 0 004.6 9a1.65 1.65 0 00-.33-1.82l-.06-.06a2 2 0 112.83-2.83l.06.06A1.65 1.65 0 009 4.6a1.65 1.65 0 001-1.51V3a2 2 0 014 0v.09A1.65 1.65 0 0015 4.6a1.65 1.65 0 001.82-.33l.06-.06a2 2 0 112.83 2.83l-.06.06A1.65 1.65 0 0019.4 9c.3.63.92 1.05 1.51 1H21a2 2 0 010 4h-.09c-.59-.05-1.21.37-1.51 1z"></path></svg>